<svg preserveAspectRatio="none" overflow="visible" style="display: block;" width="24" height="24" viewBox="0 0 24 24" fill="none" xmlns="http://www.w3.org/2000/svg">
<g id="inventory/storefront">
<path id="vector" d="M21.0251 11.05V19C21.0251 19.55 20.8292 20.0208 20.4376 20.4125C20.0459 20.8042 19.5751 21 19.0251 21H5.02506C4.47506 21 4.00423 20.8042 3.61256 20.4125C3.2209 20.0208 3.02506 19.55 3.02506 19V11.05C2.64173 10.7 2.3459 10.25 2.13756 9.7C1.92923 9.15 1.92506 8.55 2.12506 7.9L3.17506 4.5C3.3084 4.06667 3.5459 3.70833 3.88756 3.425C4.22923 3.14167 4.62506 3 5.07506 3H18.9751C19.4251 3 19.8167 3.1375 20.1501 3.4125C20.4834 3.6875 20.7251 4.05 20.8751 4.5L21.9251 7.9C22.1251 8.55 22.1209 9.14167 21.9126 9.675C21.7042 10.2083 21.4084 10.6667 21.0251 11.05ZM14.2251 10C14.6751 10 15.0167 9.84583 15.2501 9.5375C15.4834 9.22917 15.5751 8.88333 15.5251 8.5L14.9751 5H13.0251V8.7C13.0251 9.05 13.1417 9.35417 13.3751 9.6125C13.6084 9.87083 13.8917 10 14.2251 10ZM9.72506 10C10.1084 10 10.4209 9.87083 10.6626 9.6125C10.9042 9.35417 11.0251 9.05 11.0251 8.7V5H9.07506L8.52506 8.5C8.4584 8.9 8.5459 9.25 8.78756 9.55C9.02923 9.85 9.34173 10 9.72506 10ZM5.27506 10C5.57506 10 5.83756 9.89167 6.06256 9.675C6.28756 9.45833 6.42506 9.18333 6.47506 8.85L7.02506 5H5.07506L4.07506 8.35C3.97506 8.68333 4.02923 9.04167 4.23756 9.425C4.4459 9.80833 4.79173 10 5.27506 10ZM18.7751 10C19.2584 10 19.6084 9.80833 19.8251 9.425C20.0417 9.04167 20.0917 8.68333 19.9751 8.35L18.9251 5H17.0251L17.5751 8.85C17.6251 9.18333 17.7626 9.45833 17.9876 9.675C18.2126 9.89167 18.4751 10 18.7751 10ZM5.02506 19H19.0251V11.95C18.9417 11.9833 18.8876 12 18.8626 12H18.7751C18.3251 12 17.9292 11.925 17.5876 11.775C17.2459 11.625 16.9084 11.3833 16.5751 11.05C16.2751 11.35 15.9334 11.5833 15.5501 11.75C15.1667 11.9167 14.7584 12 14.3251 12C13.8751 12 13.4542 11.9167 13.0626 11.75C12.6709 11.5833 12.3251 11.35 12.0251 11.05C11.7417 11.35 11.4126 11.5833 11.0376 11.75C10.6626 11.9167 10.2584 12 9.82506 12C9.34173 12 8.90423 11.9167 8.51256 11.75C8.1209 11.5833 7.77506 11.35 7.47506 11.05C7.12506 11.4 6.77923 11.6458 6.43756 11.7875C6.0959 11.9292 5.7084 12 5.27506 12H5.16256C5.1209 12 5.07506 11.9833 5.02506 11.95V19Z" fill="#004461"/>
</g>
</svg>
