<svg preserveAspectRatio="none" overflow="visible" style="display: block;" width="24" height="24" viewBox="0 0 24 24" fill="none" xmlns="http://www.w3.org/2000/svg">
<g id="action/sync">
<g id="vector">
<path d="M4 20V18H6.75L6.35 17.65C5.48333 16.8833 4.875 16.0083 4.525 15.025C4.175 14.0417 4 13.05 4 12.05C4 10.2 4.554 8.554 5.662 7.112C6.77067 5.67067 8.21667 4.71667 10 4.25V6.35C8.8 6.78333 7.83333 7.52067 7.1 8.562C6.36667 9.604 6 10.7667 6 12.05C6 12.8 6.14167 13.529 6.425 14.237C6.70833 14.9457 7.15 15.6 7.75 16.2L8 16.45V14H10V20H4ZM14 19.75V17.65C15.2 17.2167 16.1667 16.4793 16.9 15.438C17.6333 14.396 18 13.2333 18 11.95C18 11.2 17.8583 10.4707 17.575 9.762C17.2917 9.054 16.85 8.4 16.25 7.8L16 7.55V10H14V4H20V6H17.25L17.65 6.35C18.4667 7.16667 19.0627 8.054 19.438 9.012C19.8127 9.97067 20 10.95 20 11.95C20 13.8 19.4457 15.4457 18.337 16.887C17.229 18.329 15.7833 19.2833 14 19.75Z" fill="#2A2C2F"/>
</g>
</g>
</svg>
